<mxfile host="app.diagrams.net" modified="2024-04-01T17:10:14.447Z" agent="Mozilla/5.0 (Windows NT 10.0; Win64; x64) AppleWebKit/537.36 (KHTML, like Gecko) Chrome/121.0.0.0 Safari/537.36 OPR/107.0.0.0" etag="AFk9vOqmpU6mRLJZWNs9" version="24.2.1" type="github">
  <diagram name="Page-1" id="vgnqtysXQieB4pXxnnxd">
    <mxGraphModel dx="877" dy="471" grid="1" gridSize="10" guides="1" tooltips="1" connect="1" arrows="1" fold="1" page="1" pageScale="1" pageWidth="850" pageHeight="1100" math="0" shadow="0">
      <root>
        <mxCell id="0" />
        <mxCell id="1" parent="0" />
        <mxCell id="5GnFBJSOActx5n4x3gq5-1" value="" style="rounded=0;whiteSpace=wrap;html=1;" vertex="1" parent="1">
          <mxGeometry x="90" y="40" width="700" height="1040" as="geometry" />
        </mxCell>
        <mxCell id="5GnFBJSOActx5n4x3gq5-2" value="Admin" style="shape=umlActor;verticalLabelPosition=bottom;verticalAlign=top;html=1;outlineConnect=0;" vertex="1" parent="1">
          <mxGeometry x="710" y="410" width="30" height="60" as="geometry" />
        </mxCell>
        <mxCell id="5GnFBJSOActx5n4x3gq5-3" value="Guest" style="shape=umlActor;verticalLabelPosition=bottom;verticalAlign=top;html=1;outlineConnect=0;" vertex="1" parent="1">
          <mxGeometry x="150" y="530" width="30" height="60" as="geometry" />
        </mxCell>
        <mxCell id="5GnFBJSOActx5n4x3gq5-4" value="Marketing Manager" style="shape=umlActor;verticalLabelPosition=bottom;verticalAlign=top;html=1;outlineConnect=0;" vertex="1" parent="1">
          <mxGeometry x="710" y="140" width="30" height="60" as="geometry" />
        </mxCell>
        <mxCell id="5GnFBJSOActx5n4x3gq5-5" value="Marketing Coordinator" style="shape=umlActor;verticalLabelPosition=bottom;verticalAlign=top;html=1;outlineConnect=0;" vertex="1" parent="1">
          <mxGeometry x="150" y="360" width="30" height="60" as="geometry" />
        </mxCell>
        <mxCell id="5GnFBJSOActx5n4x3gq5-6" value="Student" style="shape=umlActor;verticalLabelPosition=bottom;verticalAlign=top;html=1;outlineConnect=0;" vertex="1" parent="1">
          <mxGeometry x="150" y="190" width="30" height="60" as="geometry" />
        </mxCell>
        <mxCell id="5GnFBJSOActx5n4x3gq5-7" value="View Contribution" style="ellipse;whiteSpace=wrap;html=1;" vertex="1" parent="1">
          <mxGeometry x="270" y="130" width="120" height="50" as="geometry" />
        </mxCell>
        <mxCell id="5GnFBJSOActx5n4x3gq5-15" value="Within Faculty" style="ellipse;whiteSpace=wrap;html=1;" vertex="1" parent="1">
          <mxGeometry x="425" y="220" width="120" height="50" as="geometry" />
        </mxCell>
        <mxCell id="5GnFBJSOActx5n4x3gq5-18" value="Upload Contributions" style="ellipse;whiteSpace=wrap;html=1;" vertex="1" parent="1">
          <mxGeometry x="270" y="220" width="120" height="50" as="geometry" />
        </mxCell>
        <mxCell id="5GnFBJSOActx5n4x3gq5-20" value="" style="endArrow=classic;html=1;rounded=0;exitX=1;exitY=0.3333333333333333;exitDx=0;exitDy=0;exitPerimeter=0;entryX=0;entryY=0.5;entryDx=0;entryDy=0;" edge="1" parent="1" source="5GnFBJSOActx5n4x3gq5-6" target="5GnFBJSOActx5n4x3gq5-18">
          <mxGeometry width="50" height="50" relative="1" as="geometry">
            <mxPoint x="400" y="160" as="sourcePoint" />
            <mxPoint x="450" y="110" as="targetPoint" />
          </mxGeometry>
        </mxCell>
        <mxCell id="5GnFBJSOActx5n4x3gq5-21" value="" style="endArrow=classic;html=1;rounded=0;exitX=1;exitY=0.3333333333333333;exitDx=0;exitDy=0;exitPerimeter=0;entryX=0;entryY=0.5;entryDx=0;entryDy=0;" edge="1" parent="1" source="5GnFBJSOActx5n4x3gq5-6" target="5GnFBJSOActx5n4x3gq5-7">
          <mxGeometry width="50" height="50" relative="1" as="geometry">
            <mxPoint x="400" y="260" as="sourcePoint" />
            <mxPoint x="450" y="210" as="targetPoint" />
          </mxGeometry>
        </mxCell>
        <mxCell id="5GnFBJSOActx5n4x3gq5-23" value="Within Faculty" style="ellipse;whiteSpace=wrap;html=1;" vertex="1" parent="1">
          <mxGeometry x="425" y="130" width="120" height="50" as="geometry" />
        </mxCell>
        <mxCell id="5GnFBJSOActx5n4x3gq5-25" value="" style="endArrow=classic;html=1;rounded=0;entryX=0;entryY=0.5;entryDx=0;entryDy=0;exitX=1;exitY=0.5;exitDx=0;exitDy=0;" edge="1" parent="1" source="5GnFBJSOActx5n4x3gq5-18" target="5GnFBJSOActx5n4x3gq5-15">
          <mxGeometry width="50" height="50" relative="1" as="geometry">
            <mxPoint x="400" y="260" as="sourcePoint" />
            <mxPoint x="450" y="210" as="targetPoint" />
          </mxGeometry>
        </mxCell>
        <mxCell id="5GnFBJSOActx5n4x3gq5-26" value="" style="endArrow=classic;html=1;rounded=0;exitX=1;exitY=0.5;exitDx=0;exitDy=0;entryX=0;entryY=0.5;entryDx=0;entryDy=0;" edge="1" parent="1" source="5GnFBJSOActx5n4x3gq5-7" target="5GnFBJSOActx5n4x3gq5-23">
          <mxGeometry width="50" height="50" relative="1" as="geometry">
            <mxPoint x="400" y="260" as="sourcePoint" />
            <mxPoint x="450" y="210" as="targetPoint" />
          </mxGeometry>
        </mxCell>
        <mxCell id="5GnFBJSOActx5n4x3gq5-27" style="edgeStyle=orthogonalEdgeStyle;rounded=0;orthogonalLoop=1;jettySize=auto;html=1;exitX=0.5;exitY=1;exitDx=0;exitDy=0;" edge="1" parent="1" source="5GnFBJSOActx5n4x3gq5-15" target="5GnFBJSOActx5n4x3gq5-15">
          <mxGeometry relative="1" as="geometry" />
        </mxCell>
        <mxCell id="5GnFBJSOActx5n4x3gq5-28" value="All Contributions" style="ellipse;whiteSpace=wrap;html=1;" vertex="1" parent="1">
          <mxGeometry x="470" y="300" width="120" height="50" as="geometry" />
        </mxCell>
        <mxCell id="5GnFBJSOActx5n4x3gq5-29" value="Provide Feedback" style="ellipse;whiteSpace=wrap;html=1;" vertex="1" parent="1">
          <mxGeometry x="270" y="320" width="120" height="50" as="geometry" />
        </mxCell>
        <mxCell id="5GnFBJSOActx5n4x3gq5-32" value="" style="endArrow=classic;html=1;rounded=0;exitX=1;exitY=0.3333333333333333;exitDx=0;exitDy=0;exitPerimeter=0;entryX=0;entryY=0.5;entryDx=0;entryDy=0;" edge="1" parent="1" source="5GnFBJSOActx5n4x3gq5-5" target="5GnFBJSOActx5n4x3gq5-29">
          <mxGeometry width="50" height="50" relative="1" as="geometry">
            <mxPoint x="400" y="340" as="sourcePoint" />
            <mxPoint x="450" y="290" as="targetPoint" />
          </mxGeometry>
        </mxCell>
        <mxCell id="5GnFBJSOActx5n4x3gq5-33" value="Upload Contributions" style="ellipse;whiteSpace=wrap;html=1;" vertex="1" parent="1">
          <mxGeometry x="365" y="450" width="120" height="50" as="geometry" />
        </mxCell>
      </root>
    </mxGraphModel>
  </diagram>
</mxfile>
